# xmcd
#
# Track frame offsets:
#	150
#	9887
#	32662
#	45477
#	57362
#	79730
#	101065
#	113417
#	125815
#	143550
#	155012
#	179097
#
# Disc length: 2610
#
# Revision: 2
# Processed by: cddbd v1.5.1PL0 Copyright (c) Steve Scherf et al.
# Submitted via: audiograbber 1.82.02
# Normalized: r1:DSETVAR1
#
DISCID=980a300c
DTITLE=Various Artist - Working For A Living
DYEAR=1997
DGENRE=Country
TTITLE0=Vogues - Five O'Clock World
TTITLE1=Grandmaster Melle Mel and the Furious Five - We Don't Work For Free
TTITLE2=Lee Dorsey - Working In the Coal Mine
TTITLE3=Tennessee Ernie Ford - Sixteen Tons
TTITLE4=Ike and Tina Turner - Proud Mary
TTITLE5=James Brown - Living In America
TTITLE6=Johnny Paycheck - Take This Job And Shove It
TTITLE7=Dolly Parton - 9 To 5
TTITLE8=John Conlee - Working Man
TTITLE9=Jim Croce - Working At The Car Wash Blues
TTITLE10=Donna Summer - She Works Hard For The Money
TTITLE11=Weird Al Yankovic - Dog Eat Dog
EXTD=YEAR: 1997 ID3G: 2
EXTT0=
EXTT1=
EXTT2=
EXTT3=
EXTT4=
EXTT5=
EXTT6=
EXTT7=
EXTT8=
EXTT9=
EXTT10=
EXTT11=
PLAYORDER=
